<svg xmlns="http://www.w3.org/2000/svg" xmlns:xlink="http://www.w3.org/1999/xlink" width="12" height="12" viewBox="0 0 12 12"><defs><path id="3hk4a" d="M438.997 494.336c-2.755 0-4.997 1.735-4.997 3.867 0 1.328 1.095 2.475 2.176 2.923.19.078.315.269.315.481 0 .688-.236 1.36-.49 1.884.577-.164 1.245-.484 1.552-1.102a.499.499 0 0 1 .445-.28h.999c2.755 0 4.997-1.752 4.997-3.906 0-2.132-2.242-3.867-4.997-3.867zM435 504.7a.498.498 0 0 1-.447-.287.534.534 0 0 1 .056-.554c.008-.01.719-.948.859-1.929-1.245-.645-2.468-2.01-2.468-3.727 0-2.704 2.691-4.903 6-4.903 3.308 0 6 2.2 6 4.903 0 2.725-2.692 4.942-6 4.942h-.718c-.978 1.475-3.17 1.552-3.269 1.555z"/></defs><g><g opacity=".6" transform="translate(-433 -493)"><use fill="#464957" xlink:href="#3hk4a"/></g></g></svg>