<svg xmlns="http://www.w3.org/2000/svg" xmlns:xlink="http://www.w3.org/1999/xlink" width="12" height="11" viewBox="0 0 12 11"><defs><path id="vlida" d="M355.596 501.856a.575.575 0 0 1-.405-.167c-.456-.426-.913-.865-1.37-1.292-.456-.439-.925-.877-1.382-1.316a.51.51 0 0 1-.13-.594.609.609 0 0 1 .548-.375c.143 0 .273.052.39.168.796.736 1.605 1.51 2.323 2.208 1.708-1.885 3.534-3.886 5.347-5.9.144-.156.3-.181.405-.181.221 0 .43.142.521.348a.55.55 0 0 1-.104.607c-1.396 1.536-2.791 3.073-4.148 4.57l-1.33 1.46c-.04.051-.091.103-.13.155-.04.051-.092.09-.131.142a.575.575 0 0 1-.404.167z"/><path id="vlidb" d="M360.304 499.003v4.248c0 .633-.521 1.149-1.16 1.149h-7.983c-.64 0-1.161-.516-1.161-1.15v-7.9c0-.634.522-1.15 1.16-1.15h7.983c.079 0 .157.013.222.026l-.9.968h-7.304a.15.15 0 0 0-.157.155v7.902c0 .09.066.155.157.155h7.982a.15.15 0 0 0 .157-.155v-3.176z"/></defs><g><g opacity=".6" transform="translate(-350 -494)"><g opacity=".6"><use fill="#464957" xlink:href="#vlida"/></g><g opacity=".6"><use fill="#464957" xlink:href="#vlidb"/></g></g></g></svg>