<svg xmlns="http://www.w3.org/2000/svg" xmlns:xlink="http://www.w3.org/1999/xlink" width="12" height="12" viewBox="0 0 12 12"><defs><path id="exixa" d="M582 501.506a.498.498 0 0 0 .5-.5.5.5 0 0 0-.146-.354l-1.854-1.855V495.5a.5.5 0 1 0-1 0v3.504a.506.506 0 0 0 .146.354l2 2.001c.094.094.221.147.354.147zm2.994-2.509a5.003 5.003 0 0 1-4.997 4.997 5.003 5.003 0 0 1-4.997-4.997 5.003 5.003 0 0 1 4.997-4.997 5.003 5.003 0 0 1 4.997 4.997zM586 499c0-3.308-2.692-6-6-6s-6 2.692-6 6 2.692 6 6 6 6-2.692 6-6z"/></defs><g><g opacity=".6" transform="translate(-574 -493)"><use fill="#464957" xlink:href="#exixa"/></g></g></svg>