<svg xmlns="http://www.w3.org/2000/svg" width="12" height="12" viewBox="0 0 12 12">
    <g>
        <g>
            <g>
                <g>
                    <path fill="#255fff" d="M2.36 8.712l-.65-.649a.562.562 0 0 0-.96.398v2.227c0 .31.252.562.563.562h2.226a.563.563 0 0 0 .398-.96l-.65-.65 2.514-2.513a.281.281 0 0 0 0-.398l-.53-.53a.281.281 0 0 0-.398 0zM10.688.75H8.46a.562.562 0 0 0-.398.96l.65.65-2.514 2.513a.281.281 0 0 0 0 .398l.53.53c.11.11.288.11.398 0L9.64 3.288l.65.649c.354.354.96.103.96-.398V1.313a.563.563 0 0 0-.563-.563z"/>
                </g>
            </g>
        </g>
    </g>
</svg>